<?xml version="1.0" encoding="utf-8"?>
<!-- Generator: Adobe Illustrator 25.1.0, SVG Export Plug-In . SVG Version: 6.00 Build 0)  -->
<svg version="1.1" id="Layer_1" xmlns="http://www.w3.org/2000/svg" xmlns:xlink="http://www.w3.org/1999/xlink" x="0px" y="0px"
	 viewBox="0 0 595.28 566.93" style="enable-background:new 0 0 595.28 566.93;" xml:space="preserve">
<style type="text/css">
	.st0{fill:#232C59;}
</style>
<g>
	<path class="st0" d="M98.87,297.45v-94.7H85.15v93.97c0,10.29,2.85,14.41,15.55,14.41h35.02v-8.1h-31.4
		C99.47,303.03,98.84,302.15,98.87,297.45L98.87,297.45z"/>
	<polygon class="st0" points="450.48,202.75 450.48,210.84 474.28,210.84 474.28,311.13 487.99,311.13 487.99,210.84 511.78,210.84 
		511.78,202.75 450.48,202.75 	"/>
	<polygon class="st0" points="158.62,218.37 158.62,295.5 172.34,295.5 172.34,218.37 158.62,218.37 	"/>
	<path class="st0" d="M232.98,296.72c2.35,0,4.1-1.22,5.42-3.11c1.32-1.92,2.35-4.56,3.59-7.75l25.33-67.48h-9.09l-22.3,60.25
		l-22.29-60.25h-14.98l25.3,67.48c1.27,3.19,2.29,5.83,3.6,7.75C228.88,295.5,230.62,296.72,232.98,296.72L232.98,296.72z"/>
	<path class="st0" d="M413.92,260.12c4.52-1.03,8.24-2.83,11.17-5.16c4.76-3.9,7.26-9.27,7.24-15.17
		c0.02-5.92-2.28-11.31-6.97-15.18c-4.69-3.88-11.75-6.23-21.19-6.23h-28.05v77.13h13.73v-0.57v-68.49h12.46
		c10.9,0.05,15.57,6.3,15.63,13.85c-0.06,7.57-4.67,13.8-15.63,13.8h-3.28c-0.89,0.01-1.52,0.09-2.02,0.45l-0.7,1.49
		c0,0.98,0.62,2.17,1.25,3.15l23.26,36.32h16.34L413.92,260.12L413.92,260.12z"/>
	<path class="st0" d="M314.69,217.16c-2.39,0.01-4.39,1.2-6.01,3.11c-1.64,1.93-2.93,4.59-4.16,7.75l-26.56,67.48h9.08l24.72-63.38
		l24.67,63.38h14.98l-26.59-67.48c-1.21-3.17-2.55-5.85-4.19-7.75C319.02,218.35,317.04,217.16,314.69,217.16L314.69,217.16z"/>
	<polygon class="st0" points="292.52,263.65 292.52,271.72 334.65,271.72 334.65,263.65 292.52,263.65 	"/>
</g>
</svg>
